<svg viewBox="0 0 480 560" xmlns="http://www.w3.org/2000/svg" style="background:#004d26;"><text x="240" y="16" text-anchor="middle" font-size="8" fill="#7ec8e3" font-family="Arial" letter-spacing="3">MÉDITERRANÉE</text><path d="M281.2,37.7L285.7,25.7L281.2,13.7L281.2,7.7L276.7,7.7L270.0,13.7L270.0,22.7L276.7,31.7Z" fill="#00874A" stroke="white" stroke-width="1.2" opacity="0.6"/><path d="M326.1,385.8L404.7,385.8L415.9,340.8L404.7,280.8L393.4,265.7L326.1,310.8L326.1,385.8Z" fill="#00874A" stroke="white" stroke-width="1.2" opacity="0.6"/><path d="M359.8,103.7L400.2,103.7L400.2,61.7L368.7,61.7L359.8,55.7Z" fill="#00874A" stroke="white" stroke-width="1.2" opacity="0.6"/><path d="M146.5,100.7L173.4,76.7L169.0,70.7L157.7,64.7L157.7,52.7L146.5,52.7L139.8,64.7L139.8,94.7Z" fill="#00874A" stroke="white" stroke-width="1.2" opacity="0.6"/><path d="M211.6,82.7L243.0,82.7L229.6,52.7L220.6,46.7L211.6,58.7L211.6,70.7L202.6,70.7L202.6,82.7Z" fill="#00874A" stroke="white" stroke-width="1.2" opacity="0.6"/><path d="M285.7,25.7L301.4,28.7L296.9,16.7L303.6,13.7L299.2,7.7L281.2,7.7L281.2,13.7Z" fill="#006233" stroke="white" stroke-width="1.2" opacity="0.85"/><path d="M267.7,25.7L276.7,31.7L270.0,22.7L270.0,13.7L265.5,13.7L265.5,19.7Z" fill="#006233" stroke="white" stroke-width="1.2" opacity="0.85"/><path d="M281.2,130.7L314.9,136.7L314.9,94.7L281.2,103.7Z" fill="#00874A" stroke="white" stroke-width="1.2" opacity="0.6"/><path d="M312.6,19.7L319.4,10.7L341.8,10.7L332.8,10.7L332.8,25.7L319.4,28.7Z" fill="#006233" stroke="white" stroke-width="1.2" opacity="0.85"/><path d="M301.4,28.7L326.1,46.7L321.6,34.7L312.6,19.7L303.6,13.7L296.9,16.7L301.4,28.7Z" fill="#00874A" stroke="white" stroke-width="1.2" opacity="0.6"/><path d="M193.6,100.7L211.6,100.7L211.6,82.7L202.6,82.7L202.6,70.7L195.9,70.7L189.2,82.7Z" fill="#00874A" stroke="white" stroke-width="1.2" opacity="0.6"/><path d="M348.5,25.7L348.5,10.7L371.0,10.7L371.0,13.7L366.5,19.7L359.8,28.7L355.3,16.7Z" fill="#006233" stroke="white" stroke-width="1.2" opacity="0.85"/><path d="M173.4,76.7L193.6,100.7L189.2,82.7L195.9,70.7L198.1,58.7L182.4,52.7L169.0,61.7L169.0,70.7Z" fill="#00874A" stroke="white" stroke-width="1.2" opacity="0.6"/><path d="M371.0,37.7L382.2,37.7L380.0,22.7L371.0,13.7L366.5,19.7Z" fill="#006233" stroke="white" stroke-width="1.2" opacity="0.85"/><path d="M357.5,55.7L368.7,61.7L359.8,55.7L359.8,28.7L355.3,16.7L348.5,25.7L348.5,43.7Z" fill="#006233" stroke="white" stroke-width="1.2" opacity="0.85"/><path d="M337.3,43.7L348.5,43.7L348.5,25.7L355.3,16.7L348.5,10.7L332.8,10.7L332.8,25.7Z" fill="#006233" stroke="white" stroke-width="1.2" opacity="0.85"/><path d="M256.5,52.7L281.2,55.7L281.2,43.7L276.7,31.7L258.7,34.7L256.5,40.7Z" fill="#00874A" stroke="white" stroke-width="1.2" opacity="0.6"/><path d="M202.6,40.7L202.6,28.7L195.9,22.7L216.1,25.7L222.8,16.7L216.1,25.7L216.1,34.7L202.6,40.7Z" fill="#00874A" stroke="white" stroke-width="1.2" opacity="0.6"/><path d="M281.2,103.7L314.9,94.7L305.9,70.7L310.4,49.7L294.7,43.7L281.2,55.7L281.2,103.7Z" fill="#00874A" stroke="white" stroke-width="1.2" opacity="0.6"/><path d="M195.9,70.7L211.6,70.7L211.6,58.7L220.6,46.7L220.6,40.7L202.6,40.7L202.6,52.7L198.1,58.7Z" fill="#00874A" stroke="white" stroke-width="1.2" opacity="0.6"/><path d="M314.9,265.7L393.4,265.7L393.4,190.7L314.9,190.7L292.4,235.7L292.4,265.7Z" fill="#00874A" stroke="white" stroke-width="1.2" opacity="0.6"/><path d="M169.0,61.7L182.4,52.7L195.9,52.7L195.9,40.7L182.4,34.7L169.0,43.7L166.7,55.7Z" fill="#006233" stroke="white" stroke-width="1.2" opacity="0.85"/><path d="M139.8,190.7L193.6,190.7L193.6,148.7L139.8,148.7L117.3,160.7L117.3,190.7Z" fill="#00874A" stroke="white" stroke-width="1.2" opacity="0.6"/><path d="M404.7,445.8L472.0,445.8L472.0,280.8L415.9,340.8L404.7,385.8L326.1,385.8L326.1,445.8L404.7,445.8Z" fill="#00874A" stroke="white" stroke-width="1.2" opacity="0.6"/><path d="M281.2,43.7L301.4,28.7L294.7,43.7L287.9,55.7L281.2,55.7Z" fill="#00874A" stroke="white" stroke-width="1.2" opacity="0.6"/><path d="M276.7,31.7L285.7,25.7L281.2,13.7L281.2,7.7L270.0,13.7Z" fill="#006233" stroke="white" stroke-width="1.2" opacity="0.85"/><path d="M382.2,37.7L404.7,37.7L404.7,12.2L386.7,12.2L380.0,22.7Z" fill="#006233" stroke="white" stroke-width="1.2" opacity="0.85"/><path d="M11.8,535.8L76.9,535.8L76.9,385.8L76.9,340.8L11.8,310.8L11.8,535.8Z" fill="#00874A" stroke="white" stroke-width="1.2" opacity="0.6"/><path d="M229.6,52.7L256.5,52.7L229.6,34.7L229.6,40.7L220.6,40.7L220.6,46.7Z" fill="#00874A" stroke="white" stroke-width="1.2" opacity="0.6"/><path d="M314.9,190.7L393.4,190.7L393.4,130.7L314.9,136.7L314.9,190.7Z" fill="#00874A" stroke="white" stroke-width="1.2" opacity="0.6"/><path d="M348.5,100.7L377.7,100.7L377.7,64.7L359.8,61.7L359.8,73.7L337.3,73.7L337.3,91.7Z" fill="#00874A" stroke="white" stroke-width="1.2" opacity="0.6"/><path d="M368.7,61.7L395.7,61.7L395.7,37.7L371.0,37.7L366.5,19.7L359.8,28.7L359.8,55.7Z" fill="#006233" stroke="white" stroke-width="1.2" opacity="0.85"/><path d="M243.0,25.7L258.7,34.7L256.5,28.7L258.7,22.7L265.5,19.7L265.5,13.7L258.7,10.7L243.0,13.7Z" fill="#006233" stroke="white" stroke-width="1.2" opacity="0.85"/><path d="M326.1,46.7L337.3,43.7L332.8,25.7L332.8,10.7L319.4,10.7L312.6,19.7L321.6,34.7Z" fill="#006233" stroke="white" stroke-width="1.2" opacity="0.85"/><path d="M229.6,34.7L256.5,52.7L256.5,40.7L258.7,34.7L243.0,25.7L229.6,28.7Z" fill="#00874A" stroke="white" stroke-width="1.2" opacity="0.6"/><path d="M139.8,148.7L193.6,148.7L193.6,100.7L146.5,100.7L139.8,94.7L135.3,112.7L135.3,148.7Z" fill="#00874A" stroke="white" stroke-width="1.2" opacity="0.6"/><path d="M157.7,64.7L169.0,70.7L169.0,61.7L182.4,52.7L195.9,52.7L195.9,40.7L195.9,22.7L180.2,28.7L162.2,43.7L157.7,52.7Z" fill="#00874A" stroke="white" stroke-width="1.2" opacity="0.6"/><path d="M252.0,190.7L314.9,190.7L314.9,136.7L281.2,130.7L243.0,130.7L252.0,190.7Z" fill="#00874A" stroke="white" stroke-width="1.2" opacity="0.6"/><path d="M202.6,40.7L220.6,40.7L220.6,46.7L229.6,52.7L211.6,58.7L202.6,52.7Z" fill="#00874A" stroke="white" stroke-width="1.2" opacity="0.6"/><path d="M202.6,310.8L252.0,310.8L252.0,190.7L193.6,190.7L193.6,265.7L202.6,310.8Z" fill="#3d9965" stroke="white" stroke-width="1.2" opacity="0.6"/><path d="M79.2,535.8L79.2,385.8L252.0,385.8L252.0,535.8Z" fill="#3d9965" stroke="white" stroke-width="1.2" opacity="0.6"/><path d="M314.9,136.7L377.7,136.7L377.7,100.7L314.9,94.7Z" fill="#3d9965" stroke="white" stroke-width="1.2" opacity="0.6"/><path d="M90.4,265.7L117.3,265.7L117.3,190.7L193.6,190.7L193.6,265.7L202.6,310.8L90.4,310.8Z" fill="#3d9965" stroke="white" stroke-width="1.2" opacity="0.6"/><path d="M252.0,385.8L326.1,385.8L326.1,310.8L292.4,310.8L252.0,310.8Z" fill="#3d9965" stroke="white" stroke-width="1.2" opacity="0.6"/><path d="M252.0,535.8L326.1,535.8L326.1,385.8L252.0,385.8Z" fill="#3d9965" stroke="white" stroke-width="1.2" opacity="0.6"/><path d="M314.9,190.7L377.7,190.7L377.7,136.7L314.9,136.7Z" fill="#3d9965" stroke="white" stroke-width="1.2" opacity="0.6"/><path d="M404.7,535.8L469.8,535.8L469.8,445.8L404.7,445.8Z" fill="#3d9965" stroke="white" stroke-width="1.2" opacity="0.6"/><path d="M314.9,190.7L377.7,190.7L377.7,160.7L314.9,175.7Z" fill="#3d9965" stroke="white" stroke-width="1.2" opacity="0.6"/><path d="M252.0,310.8L292.4,310.8L292.4,265.7L292.4,235.7L314.9,265.7L314.9,190.7L252.0,190.7L252.0,310.8Z" fill="#3d9965" stroke="white" stroke-width="1.2" opacity="0.6"/><path d="M337.3,73.7L359.8,73.7L359.8,55.7L348.5,43.7L337.3,43.7L326.1,46.7L330.6,61.7Z" fill="#006233" stroke="white" stroke-width="1.2" opacity="0.85"/><path d="M301.4,28.7L319.4,28.7L319.4,10.7L312.6,19.7L303.6,13.7L296.9,16.7Z" fill="#006233" stroke="white" stroke-width="1.2" opacity="0.85"/><path d="M314.9,94.7L348.5,100.7L337.3,73.7L326.1,46.7L310.4,49.7L305.9,70.7Z" fill="#00874A" stroke="white" stroke-width="1.2" opacity="0.6"/><path d="M314.9,136.7L377.7,136.7L377.7,100.7L314.9,94.7Z" fill="#00874A" stroke="white" stroke-width="1.2" opacity="0.6"/><path d="M258.7,34.7L276.7,31.7L267.7,25.7L265.5,19.7L258.7,22.7L256.5,28.7Z" fill="#006233" stroke="white" stroke-width="1.2" opacity="0.85"/><path d="M229.6,34.7L229.6,28.7L243.0,25.7L243.0,13.7L222.8,16.7L216.1,25.7L220.6,40.7L229.6,40.7Z" fill="#00874A" stroke="white" stroke-width="1.2" opacity="0.6"/><path d="M243.0,130.7L281.2,130.7L281.2,103.7L243.0,82.7L211.6,82.7L211.6,100.7L243.0,130.7Z" fill="#00874A" stroke="white" stroke-width="1.2" opacity="0.6"/><path d="M117.3,265.7L193.6,265.7L193.6,190.7L139.8,190.7L117.3,190.7L90.4,220.7L90.4,265.7Z" fill="#00874A" stroke="white" stroke-width="1.2" opacity="0.6"/><path d="M90.4,385.8L252.0,385.8L252.0,310.8L202.6,310.8L193.6,265.7L90.4,265.7L90.4,310.8L76.9,340.8L76.9,385.8Z" fill="#00874A" stroke="white" stroke-width="1.2" opacity="0.6"/><text x="278" y="23" text-anchor="middle" font-size="6.5" fill="white" font-family="Arial" font-weight="bold">10</text><text x="371" y="339" text-anchor="middle" font-size="6.5" fill="white" font-family="Arial" font-weight="bold">11</text><text x="378" y="80" text-anchor="middle" font-size="6.5" fill="white" font-family="Arial" font-weight="bold">12</text><text x="154" y="75" text-anchor="middle" font-size="6.5" fill="white" font-family="Arial" font-weight="bold">13</text><text x="217" y="71" text-anchor="middle" font-size="6.5" fill="white" font-family="Arial" font-weight="bold">14</text><text x="293" y="19" text-anchor="middle" font-size="6.5" fill="white" font-family="Arial" font-weight="bold">15</text><text x="269" y="24" text-anchor="middle" font-size="6.5" fill="white" font-family="Arial" font-weight="bold">16</text><text x="298" y="119" text-anchor="middle" font-size="6.5" fill="white" font-family="Arial" font-weight="bold">17</text><text x="326" y="21" text-anchor="middle" font-size="6.5" fill="white" font-family="Arial" font-weight="bold">18</text><text x="309" y="30" text-anchor="middle" font-size="6.5" fill="white" font-family="Arial" font-weight="bold">19</text><text x="201" y="87" text-anchor="middle" font-size="6.5" fill="white" font-family="Arial" font-weight="bold">20</text><text x="360" y="21" text-anchor="middle" font-size="6.5" fill="white" font-family="Arial" font-weight="bold">21</text><text x="184" y="75" text-anchor="middle" font-size="6.5" fill="white" font-family="Arial" font-weight="bold">22</text><text x="374" y="29" text-anchor="middle" font-size="6.5" fill="white" font-family="Arial" font-weight="bold">23</text><text x="357" y="44" text-anchor="middle" font-size="6.5" fill="white" font-family="Arial" font-weight="bold">24</text><text x="343" y="28" text-anchor="middle" font-size="6.5" fill="white" font-family="Arial" font-weight="bold">25</text><text x="268" y="46" text-anchor="middle" font-size="6.5" fill="white" font-family="Arial" font-weight="bold">26</text><text x="209" y="32" text-anchor="middle" font-size="6.5" fill="white" font-family="Arial" font-weight="bold">27</text><text x="296" y="78" text-anchor="middle" font-size="6.5" fill="white" font-family="Arial" font-weight="bold">28</text><text x="208" y="58" text-anchor="middle" font-size="6.5" fill="white" font-family="Arial" font-weight="bold">29</text><text x="334" y="239" text-anchor="middle" font-size="6.5" fill="white" font-family="Arial" font-weight="bold">30</text><text x="180" y="52" text-anchor="middle" font-size="6.5" fill="white" font-family="Arial" font-weight="bold">31</text><text x="150" y="175" text-anchor="middle" font-size="6.5" fill="white" font-family="Arial" font-weight="bold">32</text><text x="403" y="400" text-anchor="middle" font-size="6.5" fill="white" font-family="Arial" font-weight="bold">33</text><text x="289" y="49" text-anchor="middle" font-size="6.5" fill="white" font-family="Arial" font-weight="bold">34</text><text x="279" y="22" text-anchor="middle" font-size="6.5" fill="white" font-family="Arial" font-weight="bold">35</text><text x="392" y="28" text-anchor="middle" font-size="6.5" fill="white" font-family="Arial" font-weight="bold">36</text><text x="44" y="444" text-anchor="middle" font-size="6.5" fill="white" font-family="Arial" font-weight="bold">37</text><text x="231" y="48" text-anchor="middle" font-size="6.5" fill="white" font-family="Arial" font-weight="bold">38</text><text x="346" y="171" text-anchor="middle" font-size="6.5" fill="white" font-family="Arial" font-weight="bold">39</text><text x="357" y="84" text-anchor="middle" font-size="6.5" fill="white" font-family="Arial" font-weight="bold">40</text><text x="374" y="46" text-anchor="middle" font-size="6.5" fill="white" font-family="Arial" font-weight="bold">41</text><text x="256" y="24" text-anchor="middle" font-size="6.5" fill="white" font-family="Arial" font-weight="bold">42</text><text x="326" y="30" text-anchor="middle" font-size="6.5" fill="white" font-family="Arial" font-weight="bold">43</text><text x="246" y="39" text-anchor="middle" font-size="6.5" fill="white" font-family="Arial" font-weight="bold">44</text><text x="155" y="125" text-anchor="middle" font-size="6.5" fill="white" font-family="Arial" font-weight="bold">45</text><text x="177" y="52" text-anchor="middle" font-size="6.5" fill="white" font-family="Arial" font-weight="bold">46</text><text x="276" y="165" text-anchor="middle" font-size="6.5" fill="white" font-family="Arial" font-weight="bold">47</text><text x="215" y="52" text-anchor="middle" font-size="6.5" fill="white" font-family="Arial" font-weight="bold">48</text><text x="216" y="266" text-anchor="middle" font-size="6.5" fill="white" font-family="Arial" font-weight="bold">49</text><text x="166" y="464" text-anchor="middle" font-size="6.5" fill="white" font-family="Arial" font-weight="bold">50</text><text x="346" y="120" text-anchor="middle" font-size="6.5" fill="white" font-family="Arial" font-weight="bold">51</text><text x="144" y="260" text-anchor="middle" font-size="6.5" fill="white" font-family="Arial" font-weight="bold">52</text><text x="290" y="344" text-anchor="middle" font-size="6.5" fill="white" font-family="Arial" font-weight="bold">53</text><text x="289" y="464" text-anchor="middle" font-size="6.5" fill="white" font-family="Arial" font-weight="bold">54</text><text x="346" y="167" text-anchor="middle" font-size="6.5" fill="white" font-family="Arial" font-weight="bold">55</text><text x="437" y="494" text-anchor="middle" font-size="6.5" fill="white" font-family="Arial" font-weight="bold">56</text><text x="346" y="182" text-anchor="middle" font-size="6.5" fill="white" font-family="Arial" font-weight="bold">57</text><text x="283" y="263" text-anchor="middle" font-size="6.5" fill="white" font-family="Arial" font-weight="bold">58</text><text x="343" y="60" text-anchor="middle" font-size="6.5" fill="white" font-family="Arial" font-weight="bold">04</text><text x="309" y="23" text-anchor="middle" font-size="6.5" fill="white" font-family="Arial" font-weight="bold">06</text><text x="324" y="76" text-anchor="middle" font-size="6.5" fill="white" font-family="Arial" font-weight="bold">05</text><text x="346" y="120" text-anchor="middle" font-size="6.5" fill="white" font-family="Arial" font-weight="bold">07</text><text x="264" y="30" text-anchor="middle" font-size="6.5" fill="white" font-family="Arial" font-weight="bold">09</text><text x="229" y="31" text-anchor="middle" font-size="6.5" fill="white" font-family="Arial" font-weight="bold">02</text><text x="245" y="112" text-anchor="middle" font-size="6.5" fill="white" font-family="Arial" font-weight="bold">03</text><text x="135" y="230" text-anchor="middle" font-size="6.5" fill="white" font-family="Arial" font-weight="bold">08</text><text x="147" y="332" text-anchor="middle" font-size="6.5" fill="white" font-family="Arial" font-weight="bold">01</text></svg>